<?xml version="1.0" standalone="no"?>
<!DOCTYPE svg PUBLIC "-//W3C//DTD SVG 20010904//EN"
 "http://www.w3.org/TR/2001/REC-SVG-20010904/DTD/svg10.dtd">
<svg version="1.0" xmlns="http://www.w3.org/2000/svg"
 width="360.000000pt" height="360.000000pt" viewBox="0 0 360.000000 360.000000"
 preserveAspectRatio="xMidYMid meet">
<metadata>
Created by potrace 1.14, written by Peter Selinger 2001-2017
</metadata>
<g transform="translate(0.000000,360.000000) scale(0.100000,-0.100000)"
fill="#000000" stroke="none">
<path d="M2632 2340 c-296 -41 -511 -232 -566 -502 -94 -459 270 -835 752
-778 144 18 286 68 374 133 l28 21 0 248 0 248 -110 0 -110 0 -2 -197 -3 -198
-60 -25 c-54 -22 -74 -25 -196 -25 l-135 0 -76 38 c-175 86 -268 266 -240 462
21 153 105 269 242 334 69 33 84 36 181 39 146 6 249 -25 333 -98 18 -17 38
-30 42 -30 5 1 41 30 79 66 l70 65 -51 47 c-126 118 -351 179 -552 152z"/>
<path d="M420 1700 l0 -630 110 0 110 0 2 412 3 411 205 -336 205 -337 55 0
55 1 190 321 c105 176 198 330 207 342 16 20 17 0 18 -396 l0 -418 110 0 110
0 0 383 c0 210 -3 493 -7 630 l-6 247 -91 0 -91 0 -243 -415 c-134 -228 -247
-415 -250 -415 -4 0 -117 186 -252 413 l-246 412 -97 3 -97 3 0 -631z"/>
</g>
</svg>
